{"glyphs":{":":{"x_min":0,"x_max":359,"ha":359,"o":"m 72 519 l 288 519 l 288 368 l 72 368 z m 72 151 l 288 151 l 288 0 l 72 0 z"},"$":{"x_min":0,"x_max":851,"ha":851,"o":"m 328 389 l 609 389 l 739 259 l 739 129 l 609 0 l 522 0 l 522 259 l 242 259 l 112 389 l 112 519 l 242 648 l 328 648 z m 328 129 l 490 129 l 490 -77 l 342 -77 l 342 0 l 242 0 l 112 129 l 112 194 l 328 194 z m 361 519 l 361 721 l 507 721 l 507 648 l 609 648 l 739 519 l 739 454 l 522 454 l 522 519 z"},"?":{"x_min":0,"x_max":687,"ha":687,"o":"m 519 648 l 648 519 l 648 406 l 519 276 l 426 276 l 426 216 l 209 216 l 209 276 l 339 406 l 432 406 l 432 519 l 255 519 l 255 454 l 39 454 l 39 518 l 168 648 z m 209 151 l 426 151 l 426 0 l 209 0 z"},"<":{"x_min":0,"x_max":703,"ha":703,"o":"m 91 256 l 91 371 l 612 513 l 612 392 z m 117 228 l 338 284 l 612 212 l 612 91 z"},"'":{"x_min":0,"x_max":377,"ha":377,"o":"m 88 648 l 289 648 l 266 324 l 111 324 z"},"=":{"x_min":0,"x_max":703,"ha":703,"o":"m 91 488 l 612 488 l 612 372 l 91 372 z m 91 216 l 612 216 l 612 100 l 91 100 z"},"a":{"x_min":0,"x_max":650,"ha":650,"o":"m 393 0 l 393 389 l 85 389 l 85 454 l 150 519 l 474 519 l 604 389 l 604 0 z m 358 302 l 358 212 l 247 212 l 247 121 l 358 121 l 358 64 l 294 0 l 129 0 l 42 85 l 42 215 l 129 302 z"},"L":{"x_min":0,"x_max":619,"ha":619,"o":"m 57 0 l 57 648 l 273 648 l 273 0 z m 307 0 l 307 129 l 414 129 l 414 211 l 610 211 l 610 0 z"},"3":{"x_min":0,"x_max":730,"ha":730,"o":"m 547 648 l 677 519 l 677 391 l 601 326 l 677 260 l 677 129 l 547 0 l 461 0 l 461 273 l 311 273 l 311 386 l 461 386 l 461 648 z m 267 510 l 267 416 l 51 416 l 51 519 l 180 648 l 427 648 l 427 510 z m 51 129 l 51 229 l 267 229 l 267 138 l 427 138 l 427 0 l 180 0 z"},";":{"x_min":0,"x_max":359,"ha":359,"o":"m 72 519 l 288 519 l 288 368 l 72 368 z m 72 151 l 288 151 l 288 0 l 201 -129 l 72 -129 l 132 0 l 72 0 z"},"J":{"x_min":0,"x_max":668,"ha":668,"o":"m 104 648 l 618 648 l 618 129 l 488 0 l 402 0 l 402 507 l 104 507 z m 250 129 l 368 129 l 368 0 l 155 0 l 25 129 l 25 271 l 250 271 z"},"V":{"x_min":0,"x_max":669,"ha":669,"o":"m 432 0 l 222 0 l -13 648 l 208 648 z m 465 648 l 682 648 l 458 20 l 361 305 z"},"\"":{"x_min":0,"x_max":664,"ha":664,"o":"m 88 648 l 289 648 l 266 324 l 111 324 z m 374 648 l 575 648 l 552 324 l 396 324 z"},"7":{"x_min":0,"x_max":634,"ha":634,"o":"m 386 485 l 593 485 l 397 0 l 169 0 z m 237 420 l 25 420 l 25 583 l 89 648 l 609 648 l 609 519 l 237 519 z"},"S":{"x_min":0,"x_max":721,"ha":721,"o":"m 458 0 l 458 243 l 177 243 l 47 373 l 47 519 l 177 648 l 250 648 l 250 418 l 548 418 l 674 288 l 674 129 l 544 0 z m 285 531 l 285 648 l 544 648 l 656 535 l 656 466 l 458 466 l 458 531 z m 47 194 l 263 194 l 263 117 l 423 117 l 423 0 l 156 0 l 47 129 z"},"}":{"x_min":0,"x_max":478,"ha":478,"o":"m 152 399 l 223 334 l 152 249 l 152 61 l 72 61 l 72 -69 l 235 -69 l 364 61 l 364 249 l 434 324 l 364 399 l 364 588 l 235 717 l 72 717 l 72 588 l 152 588 z"},"Z":{"x_min":0,"x_max":621,"ha":621,"o":"m 25 121 l 449 648 l 595 648 l 595 522 l 167 0 l 25 0 z m 586 0 l 211 0 l 334 142 l 586 142 z m 39 648 l 406 648 l 284 506 l 39 506 z"},"x":{"x_min":0,"x_max":557,"ha":557,"o":"m 218 519 l 563 0 l 339 0 l -7 519 z m 302 447 l 339 519 l 563 519 l 414 279 z m 218 0 l -7 0 l 137 247 l 253 73 z"},")":{"x_min":0,"x_max":478,"ha":478,"o":"m 149 61 l 69 61 l 69 -69 l 236 -69 l 361 61 l 361 588 l 236 717 l 69 717 l 69 588 l 149 588 z"},"&":{"x_min":0,"x_max":813,"ha":813,"o":"m 140 441 l 139 442 l 139 539 l 250 648 l 347 648 l 347 479 l 518 280 l 665 395 l 771 271 l 626 154 l 759 0 l 521 0 z m 183 0 l 74 107 l 74 263 l 167 359 l 268 242 l 268 125 l 371 125 l 456 24 l 428 0 z m 667 540 l 667 454 l 464 454 l 464 519 l 381 519 l 381 648 l 558 648 z"},"_":{"x_min":0,"x_max":650,"ha":650,"o":"m -42 -98 l 692 -98 l 692 -192 l -42 -192 z"},"v":{"x_min":0,"x_max":582,"ha":582,"o":"m -7 519 l 208 519 l 392 0 l 187 0 z m 414 29 l 317 303 l 387 519 l 589 519 z"},"O":{"x_min":0,"x_max":714,"ha":714,"o":"m 258 132 l 339 132 l 339 0 l 173 0 l 42 129 l 42 519 l 173 648 l 339 648 l 339 517 l 258 517 z m 456 517 l 374 517 l 374 648 l 541 648 l 672 519 l 672 129 l 541 0 l 374 0 l 374 132 l 456 132 z"},"(":{"x_min":0,"x_max":478,"ha":478,"o":"m 328 61 l 408 61 l 408 -69 l 242 -69 l 116 61 l 116 588 l 242 717 l 408 717 l 408 588 l 328 588 z"},"C":{"x_min":0,"x_max":703,"ha":703,"o":"m 263 0 l 177 0 l 47 129 l 47 519 l 177 648 l 263 648 z m 297 519 l 297 648 l 527 648 l 657 519 l 657 388 l 441 388 l 441 519 z m 297 0 l 297 129 l 441 129 l 441 224 l 657 224 l 657 129 l 527 0 z"},"W":{"x_min":0,"x_max":941,"ha":941,"o":"m 297 292 l 362 564 l 447 256 l 377 0 l 181 0 l -13 648 l 202 648 z m 755 0 l 549 0 l 372 648 l 589 648 z m 757 648 l 954 648 l 778 34 l 690 379 z"},"A":{"x_min":0,"x_max":732,"ha":732,"o":"m 482 71 l 271 71 l 315 199 l 433 199 l 259 648 l 470 648 l 728 0 l 510 0 z m 213 0 l 4 0 l 236 619 l 332 361 z"},"f":{"x_min":0,"x_max":443,"ha":443,"o":"m 286 587 l 286 0 l 70 0 l 70 389 l 19 389 l 19 519 l 70 519 l 70 595 l 200 716 l 442 716 l 442 587 z m 319 389 l 320 519 l 442 519 l 442 389 z"},"Q":{"x_min":0,"x_max":721,"ha":721,"o":"m 338 0 l 177 0 l 47 129 l 47 519 l 177 648 l 343 648 l 343 519 l 263 519 l 263 129 l 434 129 l 644 -69 l 528 -182 z m 673 129 l 580 35 l 458 148 l 458 519 l 376 519 l 376 648 l 544 648 l 673 519 z"},"w":{"x_min":0,"x_max":901,"ha":901,"o":"m -7 519 l 199 519 l 284 249 l 344 436 l 421 197 l 360 0 l 359 0 l 179 0 z m 347 519 l 550 519 l 717 0 l 521 0 z m 739 32 l 648 312 l 706 519 l 908 519 z"},"-":{"x_min":0,"x_max":613,"ha":613,"o":"m 91 361 l 522 361 l 522 245 l 91 245 z"},"E":{"x_min":0,"x_max":691,"ha":691,"o":"m 273 266 l 273 0 l 57 0 l 57 648 l 273 648 l 273 391 l 479 391 l 479 266 z m 307 522 l 307 648 l 645 648 l 645 460 l 441 460 l 441 522 z m 307 0 l 307 129 l 429 129 l 429 194 l 645 194 l 645 0 z"},"s":{"x_min":0,"x_max":642,"ha":642,"o":"m 164 519 l 250 519 l 250 335 l 496 335 l 608 222 l 608 121 l 488 0 l 393 0 l 393 196 l 159 196 l 47 304 l 47 402 z m 263 95 l 358 95 l 358 0 l 136 0 l 46 107 l 46 148 l 263 148 z m 393 423 l 284 423 l 284 519 l 514 519 l 591 441 l 591 383 l 393 383 z"},">":{"x_min":0,"x_max":703,"ha":703,"o":"m 611 348 l 611 233 l 90 91 l 90 212 z m 585 376 l 364 320 l 90 392 l 90 513 z"},"l":{"x_min":0,"x_max":368,"ha":368,"o":"m 363 0 l 172 0 l 51 121 l 51 716 l 267 716 l 267 129 l 363 129 z"},"8":{"x_min":0,"x_max":752,"ha":752,"o":"m 267 129 l 360 129 l 360 0 l 183 0 l 53 129 l 53 264 l 130 328 l 53 392 l 53 519 l 183 648 l 360 648 l 360 519 l 267 519 l 267 389 l 360 389 l 360 268 l 267 268 z m 495 519 l 395 519 l 395 648 l 570 647 l 700 518 l 700 393 l 623 328 l 700 263 l 700 129 l 570 0 l 395 0 l 395 129 l 495 129 l 495 268 l 395 268 l 395 389 l 495 389 z"},"\\":{"x_min":0,"x_max":364,"ha":364,"o":"m 105 692 l -17 692 l 283 -96 l 404 -96 z"},"e":{"x_min":0,"x_max":650,"ha":650,"o":"m 262 0 l 176 0 l 46 129 l 46 389 l 176 519 l 262 519 z m 296 208 l 296 298 l 410 298 l 410 389 l 296 389 l 296 519 l 479 519 l 609 389 l 609 208 z m 296 0 l 296 121 l 586 121 l 586 65 l 522 0 z"},"b":{"x_min":0,"x_max":654,"ha":654,"o":"m 267 716 l 267 0 l 51 0 l 51 716 z m 397 389 l 301 389 l 301 455 l 364 519 l 482 519 l 612 389 l 612 129 l 482 0 l 301 0 l 301 121 l 397 121 z"},"%":{"x_min":0,"x_max":1168,"ha":1168,"o":"m 502 382 l 405 284 l 308 284 l 308 382 l 340 382 l 340 551 l 308 551 l 308 649 l 405 649 l 502 551 z m 243 382 l 274 382 l 274 284 l 178 284 l 80 382 l 80 551 l 178 649 l 274 649 l 274 551 l 243 551 z m 1087 98 l 990 0 l 893 0 l 893 98 l 925 98 l 925 267 l 893 267 l 893 364 l 990 364 l 1087 267 z m 828 98 l 859 98 l 859 0 l 763 0 l 666 98 l 666 267 l 763 364 l 859 364 l 859 267 l 828 267 z m 664 712 l 786 712 l 486 -96 l 364 -96 z"},"m":{"x_min":0,"x_max":998,"ha":998,"o":"m 58 0 l 58 519 l 274 519 l 274 0 z m 396 389 l 309 389 l 309 450 l 376 519 l 543 519 l 613 449 l 613 0 l 396 0 z m 735 389 l 647 389 l 647 449 l 713 519 l 845 519 l 951 412 l 951 0 l 735 0 z"},"#":{"x_min":0,"x_max":830,"ha":830,"o":"m 340 255 l 443 255 l 433 139 l 329 139 l 317 0 l 201 0 l 213 139 l 91 139 l 101 255 l 223 255 l 235 393 l 113 393 l 124 509 l 245 509 l 257 648 l 373 648 l 361 509 l 466 509 l 455 393 l 351 393 z m 511 648 l 627 648 l 615 509 l 739 509 l 728 393 l 605 393 l 594 255 l 716 255 l 706 139 l 583 139 l 571 0 l 455 0 z"},",":{"x_min":0,"x_max":359,"ha":359,"o":"m 72 151 l 288 151 l 288 0 l 201 -129 l 72 -129 l 132 0 l 72 0 z"},"n":{"x_min":0,"x_max":662,"ha":662,"o":"m 51 0 l 51 519 l 269 519 l 269 0 z m 396 389 l 304 389 l 304 446 l 376 519 l 496 519 l 613 402 l 613 0 l 396 0 z"},"h":{"x_min":0,"x_max":659,"ha":659,"o":"m 51 716 l 267 716 l 267 0 l 51 0 z m 396 389 l 301 389 l 301 455 l 364 519 l 482 519 l 612 389 l 612 0 l 396 0 z"},"z":{"x_min":0,"x_max":577,"ha":577,"o":"m 533 0 l 231 0 l 346 129 l 533 129 z m 51 519 l 343 519 l 231 389 l 51 389 z m 46 125 l 383 519 l 532 519 l 532 389 l 191 0 l 46 0 z"},"B":{"x_min":0,"x_max":730,"ha":730,"o":"m 467 519 l 307 519 l 307 648 l 558 648 l 688 519 l 688 387 l 623 322 l 688 257 l 688 129 l 558 0 l 307 0 l 307 129 l 467 129 l 467 268 l 307 268 l 307 380 l 467 380 z m 57 648 l 273 648 l 273 0 l 57 0 z"},"K":{"x_min":0,"x_max":669,"ha":669,"o":"m 57 0 l 57 648 l 273 648 l 273 0 z m 306 92 l 306 407 l 458 647 l 682 648 z m 692 0 l 459 0 l 386 151 l 514 343 z"},"R":{"x_min":0,"x_max":726,"ha":726,"o":"m 57 0 l 57 648 l 273 648 l 273 0 z m 307 519 l 307 648 l 554 648 l 684 519 l 684 324 l 584 225 l 577 238 l 375 211 l 382 194 l 307 194 l 307 320 l 469 320 l 469 519 z m 706 0 l 475 0 l 382 194 l 554 194 l 584 225 z"},"T":{"x_min":0,"x_max":613,"ha":613,"o":"m 194 473 l 419 473 l 419 0 l 194 0 z m 25 648 l 588 648 l 588 507 l 25 507 z"},"P":{"x_min":0,"x_max":712,"ha":712,"o":"m 56 0 l 56 648 l 268 648 l 268 0 z m 302 519 l 302 648 l 544 648 l 674 519 l 674 296 l 544 167 l 302 167 l 302 296 l 459 296 l 459 519 z"},"|":{"x_min":0,"x_max":342,"ha":342,"o":"m 112 -96 l 112 692 l 229 692 l 229 -96 z"},"t":{"x_min":0,"x_max":447,"ha":447,"o":"m 272 129 l 415 129 l 415 0 l 187 0 l 57 129 l 57 389 l 14 389 l 14 519 l 57 519 l 57 575 l 272 648 z m 307 389 l 307 519 l 423 519 l 423 389 z"},"M":{"x_min":0,"x_max":902,"ha":902,"o":"m 58 648 l 287 648 l 461 360 l 598 594 l 598 268 l 442 0 z m 629 0 l 629 648 l 845 648 l 845 0 z m 57 0 l 57 588 l 259 250 l 259 0 z"},"g":{"x_min":0,"x_max":654,"ha":654,"o":"m 392 389 l 296 389 l 296 519 l 479 519 l 608 389 l 608 -51 l 479 -182 l 194 -182 l 129 -116 l 129 -68 l 392 -68 z m 358 121 l 358 64 l 293 0 l 176 0 l 46 129 l 46 389 l 176 519 l 262 519 l 262 121 z"},"j":{"x_min":0,"x_max":319,"ha":319,"o":"m -49 -43 l 51 -43 l 51 519 l 268 519 l 268 -43 l 138 -173 l -49 -173 z m 51 721 l 267 721 l 267 583 l 51 583 z"},"i":{"x_min":0,"x_max":319,"ha":319,"o":"m 51 519 l 268 519 l 268 0 l 51 0 z m 51 721 l 268 721 l 268 583 l 51 583 z"},"y":{"x_min":0,"x_max":596,"ha":596,"o":"m 340 -181 l 133 -181 l 396 519 l 603 519 z m -7 519 l 208 519 l 281 308 l 185 43 z"},"@":{"x_min":0,"x_max":774,"ha":774,"o":"m 46 129 l 46 475 l 196 626 l 374 626 l 374 519 l 260 519 l 154 412 l 154 193 l 260 86 l 383 86 l 383 -21 l 195 -21 z m 512 519 l 400 519 l 400 626 l 577 626 l 728 475 l 728 194 l 621 194 l 621 411 z m 335 194 l 335 411 l 439 411 l 439 157 l 509 87 l 664 86 l 577 -21 l 410 -21 l 410 194 z"},".":{"x_min":0,"x_max":359,"ha":359,"o":"m 72 151 l 288 151 l 288 0 l 72 0 z"},"p":{"x_min":0,"x_max":659,"ha":659,"o":"m 51 -173 l 51 519 l 267 519 l 267 -173 z m 396 389 l 301 389 l 301 455 l 364 519 l 482 519 l 612 389 l 612 129 l 482 0 l 301 0 l 301 121 l 396 121 z"},"X":{"x_min":0,"x_max":655,"ha":655,"o":"m 467 355 l 352 523 l 427 648 l 659 648 z m -13 0 l 194 302 l 310 126 l 234 0 z m 668 0 l 433 0 l 0 648 l 233 648 z"},"*":{"x_min":0,"x_max":680,"ha":680,"o":"m 340 331 l 234 225 l 141 293 l 209 425 l 79 492 l 113 601 l 259 578 l 282 723 l 396 723 l 418 578 l 566 602 l 601 492 l 469 425 l 538 292 l 445 225 z"},"Y":{"x_min":0,"x_max":633,"ha":633,"o":"m 207 206 l -13 648 l 199 648 l 423 191 l 423 0 l 207 0 z m 437 236 l 332 449 l 438 648 l 646 648 z"},"c":{"x_min":0,"x_max":646,"ha":646,"o":"m 262 0 l 176 0 l 46 129 l 46 389 l 176 519 l 262 519 z m 296 389 l 296 519 l 479 519 l 608 389 l 608 312 l 392 312 l 392 389 z m 296 0 l 296 121 l 392 121 l 392 186 l 608 186 l 608 129 l 479 0 z"},"!":{"x_min":0,"x_max":368,"ha":368,"o":"m 285 216 l 83 216 l 69 648 l 299 648 z m 76 151 l 292 151 l 292 0 l 76 0 z"},"/":{"x_min":0,"x_max":364,"ha":364,"o":"m 260 692 l 382 692 l 83 -96 l -39 -96 z"},"[":{"x_min":0,"x_max":478,"ha":478,"o":"m 328 61 l 408 61 l 408 -69 l 134 -69 l 134 717 l 408 717 l 408 588 l 328 588 z"},"6":{"x_min":0,"x_max":732,"ha":732,"o":"m 269 129 l 350 129 l 350 0 l 183 0 l 53 129 l 53 519 l 183 648 l 350 648 l 350 519 l 269 519 z m 302 281 l 302 402 l 552 402 l 679 284 l 679 129 l 550 0 l 384 0 l 384 129 l 472 129 l 472 281 z m 384 519 l 384 648 l 550 648 l 679 519 l 679 471 l 463 471 l 463 519 z"},"r":{"x_min":0,"x_max":625,"ha":625,"o":"m 393 389 l 301 389 l 301 446 l 374 519 l 504 519 l 609 397 l 609 263 l 393 263 z m 51 0 l 51 519 l 267 519 l 267 0 z"},"2":{"x_min":0,"x_max":715,"ha":715,"o":"m 269 0 l 53 0 l 53 232 l 191 362 l 446 362 l 446 648 l 533 648 l 662 519 l 662 358 l 533 229 l 269 229 z m 269 531 l 269 437 l 53 437 l 53 519 l 183 648 l 412 648 l 412 531 z m 303 0 l 303 117 l 662 117 l 662 0 z"},"{":{"x_min":0,"x_max":478,"ha":478,"o":"m 324 399 l 254 334 l 324 249 l 324 61 l 404 61 l 404 -69 l 242 -69 l 112 61 l 112 249 l 42 324 l 112 399 l 112 588 l 242 717 l 404 717 l 404 588 l 324 588 z"},"9":{"x_min":0,"x_max":732,"ha":732,"o":"m 463 519 l 382 519 l 382 648 l 550 648 l 679 519 l 679 129 l 550 0 l 382 0 l 382 129 l 463 129 z m 430 372 l 430 242 l 183 242 l 53 372 l 53 519 l 183 648 l 349 648 l 349 519 l 269 519 l 269 372 z m 349 129 l 349 0 l 183 0 l 53 129 l 53 173 l 269 173 l 269 129 z"}," ":{"x_min":0,"x_max":259,"ha":259,"o":""},"I":{"x_min":0,"x_max":440,"ha":440,"o":"m 47 138 l 112 138 l 112 510 l 47 510 l 47 648 l 393 648 l 393 510 l 328 510 l 328 138 l 393 138 l 393 0 l 47 0 z"},"H":{"x_min":0,"x_max":740,"ha":740,"o":"m 466 648 l 684 648 l 684 0 l 467 0 l 467 263 l 307 263 l 307 393 l 466 393 z m 273 0 l 57 0 l 57 648 l 273 648 z"},"4":{"x_min":0,"x_max":680,"ha":680,"o":"m 580 217 l 653 217 l 653 90 l 580 90 l 580 0 l 372 0 l 372 648 l 580 648 z m 6 210 l 338 604 l 338 348 l 220 217 l 338 217 l 338 90 l 58 90 z"},"~":{"x_min":0,"x_max":728,"ha":728,"o":"m 563 164 l 366 164 l 252 278 l 200 278 l 98 208 l 55 250 l 171 394 l 366 394 l 482 278 l 533 278 l 634 351 l 677 307 z"},"D":{"x_min":0,"x_max":726,"ha":726,"o":"m 307 0 l 307 129 l 467 129 l 467 519 l 307 519 l 307 648 l 554 648 l 684 519 l 684 129 l 554 0 z m 57 648 l 273 648 l 273 0 l 57 0 z"},"^":{"x_min":0,"x_max":630,"ha":630,"o":"m 261 570 l 376 570 l 545 49 l 415 49 z m 232 543 l 292 333 l 215 49 l 85 49 z"},"0":{"x_min":0,"x_max":732,"ha":732,"o":"m 679 129 l 550 0 l 302 0 l 302 129 l 463 129 l 463 648 l 550 648 l 679 519 z m 269 0 l 183 0 l 53 129 l 53 519 l 183 648 l 430 648 l 430 519 l 269 519 z"},"F":{"x_min":0,"x_max":649,"ha":649,"o":"m 57 648 l 273 648 l 273 358 l 472 358 l 472 231 l 273 231 l 273 0 l 57 0 z m 307 519 l 307 648 l 636 648 l 636 433 l 420 433 l 420 519 z"},"`":{"x_min":0,"x_max":536,"ha":536,"o":"m 386 630 l 356 559 l 85 640 l 59 743 l 149 785 z"},"k":{"x_min":0,"x_max":641,"ha":641,"o":"m 267 0 l 51 0 l 51 716 l 267 716 z m 300 73 l 300 369 l 400 518 l 623 518 z m 634 0 l 400 0 l 364 104 l 492 276 z"},"u":{"x_min":0,"x_max":659,"ha":659,"o":"m 608 519 l 608 0 l 393 0 l 393 519 z m 262 129 l 358 129 l 358 65 l 296 0 l 176 0 l 46 129 l 46 519 l 262 519 z"},"]":{"x_min":0,"x_max":478,"ha":478,"o":"m 149 61 l 69 61 l 69 -69 l 343 -69 l 343 717 l 69 717 l 69 588 l 149 588 z"},"U":{"x_min":0,"x_max":730,"ha":730,"o":"m 678 129 l 548 0 l 382 0 l 382 129 l 462 129 l 462 648 l 678 648 z m 268 129 l 348 129 l 348 0 l 182 0 l 52 129 l 52 648 l 268 648 z"},"o":{"x_min":0,"x_max":675,"ha":675,"o":"m 629 129 l 500 0 l 355 0 l 355 121 l 409 121 l 409 389 l 355 389 l 355 519 l 500 519 l 629 389 z m 265 121 l 321 121 l 321 0 l 176 0 l 46 129 l 46 389 l 176 519 l 321 519 l 321 389 l 265 389 z"},"N":{"x_min":0,"x_max":736,"ha":736,"o":"m 679 0 l 450 0 l 57 648 l 285 648 z m 57 0 l 57 586 l 245 278 l 245 0 z m 679 648 l 679 62 l 491 371 l 491 648 z"},"+":{"x_min":0,"x_max":703,"ha":703,"o":"m 91 361 l 293 361 l 293 563 l 411 563 l 411 361 l 612 361 l 612 245 l 411 245 l 411 42 l 293 42 l 293 245 l 91 245 z"},"G":{"x_min":0,"x_max":730,"ha":730,"o":"m 272 129 l 457 129 l 457 0 l 186 0 l 56 129 l 56 519 l 186 648 l 272 648 z m 386 359 l 683 359 l 683 0 l 491 0 l 491 231 l 386 231 z m 306 519 l 306 648 l 569 648 l 683 519 l 683 454 l 467 454 l 467 519 z"},"q":{"x_min":0,"x_max":659,"ha":659,"o":"m 456 -173 l 393 -108 l 393 389 l 296 389 l 296 519 l 479 519 l 608 389 l 608 -173 z m 262 121 l 358 121 l 358 64 l 294 0 l 176 0 l 46 129 l 46 389 l 176 519 l 262 519 z"},"d":{"x_min":0,"x_max":667,"ha":667,"o":"m 616 716 l 616 0 l 400 0 l 400 716 z m 262 121 l 366 121 l 366 51 l 315 0 l 163 0 l 46 117 l 46 402 l 163 519 l 366 519 l 366 389 l 262 389 z"},"1":{"x_min":0,"x_max":570,"ha":570,"o":"m 69 583 l 134 648 l 393 648 l 393 159 l 177 159 l 177 519 l 69 519 z m 69 129 l 501 129 l 501 0 l 69 0 z"},"5":{"x_min":0,"x_max":731,"ha":731,"o":"m 247 290 l 52 290 l 52 648 l 636 648 l 636 519 l 247 519 z m 450 0 l 450 290 l 281 290 l 281 411 l 537 411 l 666 281 l 666 129 l 537 0 z m 416 129 l 416 0 l 182 0 l 52 129 l 52 202 l 269 202 l 269 129 z"}}}
